Coordinates
version=1
nRows=17
nColumns=36
inDegrees=yes

Units are S.I. units (second, meters, Newtons, ...)
If the header above contains a line with 'inDegrees', this indicates whether rotational values are in degrees (yes) or radians (no).

endheader
time	pelvis_tilt	pelvis_list	pelvis_rotation	pelvis_tx	pelvis_ty	pelvis_tz	hip_flexion_r	hip_adduction_r	hip_rotation_r	knee_angle_r	knee_angle_r_beta	ankle_angle_r	subtalar_angle_r	mtp_angle_r	hip_flexion_l	hip_adduction_l	hip_rotation_l	knee_angle_l	knee_angle_l_beta	ankle_angle_l	subtalar_angle_l	mtp_angle_l	lumbar_extension	lumbar_bending	lumbar_rotation	arm_flex_r	arm_add_r	arm_rot_r	elbow_flex_r	pro_sup_r	arm_flex_l	arm_add_l	arm_rot_l	elbow_flex_l	pro_sup_l
      0.70000000	     -0.39748873	      2.59145963	     -5.91610066	      0.68483417	      0.92361602	     -0.18607844	    -17.75109466	      1.42009865	      6.38273803	     21.89119666	      0.38207346	      1.64896350	    -15.11235415	     -7.17115110	     24.98427668	      1.40070072	     -3.73114198	     18.43050394	      0.32167298	     -6.79138845	    -16.14903864	     -7.17115110	    -11.15221403	    -21.11912673	      4.09422347	      1.69032869	     -4.08287550	     11.62532726	     31.75622651	    111.14233679	      4.92450210	    -11.18611026	    -15.62331676	     25.58649393	    105.40012914
      0.71000000	     -0.41615219	      2.92691988	     -5.82847337	      0.69852833	      0.92535538	     -0.18626420	    -16.48449190	      1.10972782	      5.92350333	     25.05084690	      0.43721976	     -1.58279461	    -16.53287118	     -7.18944739	     24.57994383	      1.82368070	     -3.67171408	     19.49263869	      0.34021073	     -5.41989625	    -15.98994751	     -7.18944739	    -11.18582030	    -22.10158589	      4.12264141	      1.55047293	     -3.96983106	     12.58331630	     31.49595712	    111.23177652	      4.99683193	    -11.41552192	    -16.04301576	     25.54873568	    105.24553090
      0.72000000	     -0.46966792	      3.18649417	     -5.70572254	      0.71191213	      0.92709695	     -0.18664244	    -14.88195893	      0.83936929	      5.26562153	     28.63620259	      0.49979602	     -4.59696499	    -17.51303308	     -7.20296826	     24.13843759	      2.19382917	     -3.62842055	     20.35472450	      0.35525696	     -4.17045142	    -15.88387204	     -7.20296826	    -11.23342021	    -22.92974833	      4.09128347	      1.40147020	     -3.91613651	     13.45074554	     31.40524259	    111.30202368	      5.09899517	    -11.60552744	    -16.41406308	     25.48641253	    105.13774327
      0.73000000	     -0.34894031	      3.52953597	     -5.58097424	      0.72526710	      0.92909536	     -0.18736576	    -13.27274209	      0.31237233	      4.25748928	     32.39961266	      0.56547992	     -7.17991833	    -17.53959617	     -7.20634100	     23.32543380	      2.74074214	     -3.54143609	     20.82756049	      0.36350951	     -3.14332858	    -16.03309890	     -7.20634100	    -11.48108745	    -23.75713331	      4.02855689	      1.21804516	     -3.87321615	     13.88898642	     31.49897692	    111.35873863	      5.20687752	    -11.76286728	    -16.56836255	     25.42657783	    105.09500278
      0.74000000	     -0.51139778	      3.58899754	     -5.49205035	      0.73801810	      0.93063813	     -0.18790333	    -11.22173650	      0.24634173	      3.78574765	     36.20043977	      0.63181686	    -10.90048910	    -19.51852719	     -7.22031014	     22.93410076	      2.86245706	     -3.61234720	     21.53219720	      0.37580774	     -1.71999052	    -15.35451284	     -7.22031014	    -11.42779232	    -24.23435763	      3.86933239	      1.26283762	     -4.07125957	     15.62946358	     31.45264595	    111.49904318	      5.20908872	    -11.85741820	    -17.10289300	     25.47754347	    104.96558575
      0.75000000	     -0.50120371	      3.70628598	     -5.40149705	      0.75068865	      0.93233136	     -0.18878002	     -9.27143720	     -0.05804190	      2.98298336	     39.96281559	      0.69748271	    -13.65508593	    -20.43476044	     -7.23423889	     22.19401020	      3.13082158	     -3.66564249	     21.86435952	      0.38160506	     -0.53608980	    -15.00518835	     -7.23423889	    -11.57041240	    -24.68870614	      3.60986982	      1.32954778	     -4.28492426	     17.07391416	     31.51207564	    111.53341892	      5.15644901	    -11.90455390	    -17.59773626	     25.62517248	    104.87834687
      0.76000000	     -0.39130366	      3.88338528	     -5.31548268	      0.76319768	      0.93406901	     -0.18992723	     -7.39654845	     -0.54407321	      2.08343605	     43.58077236	      0.76062797	    -15.25402255	    -20.61686988	     -7.23731869	     21.23040124	      3.53618906	     -3.62465361	     21.91963085	      0.38256973	      0.34307820	    -15.02170568	     -7.23731869	    -11.86774198	    -25.13640253	      3.38088748	      1.29119080	     -4.43425844	     17.58780445	     31.79419114	    111.58221913	      5.22369555	    -11.94377647	    -17.71574448	     25.62889445	    104.85590026
      0.77000000	     -0.45632625	      3.94508095	     -5.26451072	      0.77538775	      0.93545402	     -0.19111153	     -5.29157692	     -0.89641378	      1.30246263	     47.02348210	      0.82071459	    -16.35747333	    -21.50001343	     -7.24095921	     20.46402180	      3.76022537	     -3.71989790	     21.95422501	      0.38317351	      1.23489076	    -14.85403414	     -7.24095921	    -11.92347953	    -25.37298511	      3.19875843	      1.25675088	     -4.70567981	     18.44101454	     32.13920924	    111.67018296	      5.24018148	    -11.92852167	    -17.86307409	     25.68299287	    104.83007896
      0.78000000	     -0.50166414	      3.92349942	     -5.23831045	      0.78730784	      0.93686041	     -0.19230677	     -3.24597133	     -1.13856277	      0.66223011	     50.11174954	      0.87461502	    -16.81654959	    -22.68622597	     -7.24485226	     19.65662294	      3.87174129	     -3.90856388	     21.93639450	      0.38286231	      2.12732230	    -14.53256721	     -7.24485226	    -12.02049763	    -25.47250763	      2.96214177	      1.33438253	     -5.01902581	     19.39793734	     32.40333705	    111.74772696	      5.23373180	    -11.87790792	    -18.00079499	     25.76067050	    104.80714324
      0.79000000	     -0.49753511	      3.86324088	     -5.23545214	      0.79904074	      0.93838520	     -0.19355026	     -1.29473590	     -1.33387548	      0.12825359	     52.81080458	      0.92172242	    -16.56949021	    -23.90245854	     -7.24817632	     18.74924613	      3.94040749	     -4.13060744	     21.81576170	      0.38075687	      2.94953352	    -14.15444064	     -7.24817632	    -12.17712644	    -25.46931642	      2.68042272	      1.48272562	     -5.29736531	     20.17377927	     32.57909510	    111.79074285	      5.22272389	    -11.81277144	    -18.08620729	     25.82503121	    104.79275150
      0.80000000	     -0.62632562	      3.66448358	     -5.27961145	      0.81050836	      0.93976897	     -0.19466576	      0.80343733	     -1.31060303	     -0.23806326	     55.14943681	      0.96253925	    -15.84382224	    -25.05241024	     -7.26257106	     18.02977968	      3.73572317	     -4.68643951	     21.81934202	      0.38081936	      4.40549355	    -12.70956823	     -7.26257106	    -12.15288730	    -25.29541621	      2.24074346	      1.95017448	     -5.70186220	     22.20470756	     32.33605015	    111.67200405	      4.99531937	    -11.72884904	    -18.44054310	     26.07709823	    104.75120948
      0.81000000	     -0.61115252	      3.57558134	     -5.32026183	      0.82190809	      0.94148363	     -0.19594801	      2.70506409	     -1.42762123	     -0.56082003	     57.05469875	      0.99579235	    -14.74967268	    -26.15345127	     -7.26486938	     16.96426107	      3.80088991	     -4.80161005	     21.38040226	      0.37315841	      4.89991500	    -12.50436863	     -7.26486938	    -12.34166787	    -25.18411579	      1.94531280	      2.09969849	     -5.83876779	     22.27691581	     32.43038961	    111.62467747	      5.02855438	    -11.64160735	    -18.41842847	     26.07888908	    104.75581104
      0.82000000	     -0.73271931	      3.44905639	     -5.34986060	      0.83318189	      0.94306375	     -0.19722263	      4.74262291	     -1.44231145	     -0.77702794	     58.58630793	      1.02252397	    -13.51127014	    -27.02371126	     -7.26706720	     16.03111805	      3.79270292	     -5.00501139	     20.89035214	      0.36460543	      5.43177479	    -12.13928566	     -7.26706720	    -12.33912478	    -24.98383669	      1.69648640	      2.20541363	     -5.96066302	     22.30521278	     32.47122698	    111.57219958	      5.05483042	    -11.53892466	    -18.32509297	     26.08694833	    104.76937208
      0.83000000	     -1.00004010	      3.30957423	     -5.40074699	      0.84433515	      0.94440098	     -0.19847368	      6.94793931	     -1.42446873	     -0.90743267	     59.81317684	      1.04393687	    -11.32798840	    -26.65544921	     -7.28143049	     15.30674681	      3.67950199	     -5.52402503	     20.52303878	      0.35819460	      6.65369259	    -10.67137827	     -7.28143049	    -12.14625885	    -24.71972534	      1.57453857	      2.23090123	     -6.05655491	     22.17004520	     32.41709397	    111.25787359	      5.13632617	    -11.45986760	    -17.76007661	     25.96216048	    104.79010116
      0.84000000	     -1.14389004	      3.10174404	     -5.40726780	      0.85544723	      0.94607137	     -0.19976114	      8.88406109	     -1.23924155	     -0.92636305	     60.44711097	      1.05500111	    -10.34743673	    -27.30906079	     -7.28343864	     14.29351815	      3.62298688	     -5.58529355	     19.81164084	      0.34577836	      7.02846033	    -10.40189264	     -7.28343864	    -12.13672632	    -24.35177953	      1.25497157	      2.34117781	     -6.11090306	     21.96877658	     32.37295964	    111.19468842	      5.16972623	    -11.34645389	    -17.59206300	     25.92294758	    104.79869017
      0.85000000	     -1.29246811	      2.85755123	     -5.37444301	      0.86653809	      0.94771056	     -0.20117655	     10.76594757	     -1.01249228	     -0.95144893	     60.71854284	      1.05973849	     -9.49581057	    -27.66873483	     -7.28483973	     13.28695364	      3.53927530	     -5.65211455	     19.10794217	      0.33349650	      7.36966494	    -10.11129273	     -7.28483973	    -12.11225444	    -23.88149557	      0.93719098	      2.39275460	     -6.16326763	     21.71200751	     32.27269426	    111.12544370	      5.20538379	    -11.17939552	    -17.38204342	     25.90047464	    104.81711544
      0.86000000	     -1.49191604	      2.75080210	     -5.31395970	      0.87763969	      0.94916732	     -0.20261171	     12.65151203	     -0.95162482	     -0.95165187	     60.71639758	      1.05970105	     -7.26502770	    -26.77004941	     -7.29387315	     12.34094850	      3.58320779	     -5.80750939	     18.39402590	      0.32103631	      8.29185993	     -8.92578173	     -7.29387315	    -12.00214248	    -23.54422497	      0.79842106	      2.26370539	     -5.96438527	     20.24782872	     32.03767545	    110.77674331	      5.40244318	    -11.16015913	    -16.11395291	     25.65885950	    104.87370949
